<svg width="40" height="40" viewBox="0 0 40 40" fill="none" xmlns="http://www.w3.org/2000/svg">
<circle cx="20" cy="20" r="20" fill="#4285F4"/>
<path d="M21.9009 11.3807V9.4791C21.9009 9.26289 21.7256 9.08765 21.5094 9.08765H20.2307V7.39146C20.2307 7.17524 20.0555 7 19.8393 7C19.623 7 19.4478 7.1752 19.4478 7.39146V9.0877H18.1691C17.9529 9.0877 17.7776 9.26289 17.7776 9.47915V11.3807C13.0205 12.34 9.427 16.552 9.427 21.5877C9.427 27.3291 14.0979 32 19.8393 32C21.3172 32 22.7666 31.6855 24.095 31.0909L24.1198 31.1902C24.1633 31.3645 24.3199 31.4867 24.4996 31.4867C24.6792 31.4867 24.8357 31.3645 24.8793 31.1902L25.0224 30.6181C25.5891 30.2929 26.1273 29.9137 26.6283 29.4826C26.7921 29.3416 26.8106 29.0944 26.6696 28.9305C26.5286 28.7667 26.2814 28.7481 26.1176 28.8892C25.8545 29.1156 25.5803 29.3264 25.2965 29.5216L25.4679 28.836L27.5488 28.1254C27.7073 28.0713 27.8138 27.9224 27.8138 27.755C27.8138 27.5875 27.7072 27.4386 27.5488 27.3845L25.4679 26.674L24.8793 24.3197C24.8358 24.1455 24.6792 24.0232 24.4996 24.0232C24.3199 24.0232 24.1634 24.1455 24.1198 24.3197L23.5312 26.674L21.4503 27.3845C21.2918 27.4386 21.1854 27.5875 21.1854 27.755C21.1854 27.9224 21.2919 28.0713 21.4503 28.1254L23.5312 28.836L23.9018 30.318C22.9623 30.755 21.9548 31.0395 20.9182 31.1564C21.1928 30.6618 21.4334 29.9478 21.6437 29.0081C21.6909 28.7971 21.5582 28.5878 21.3472 28.5406C21.1363 28.4937 20.9269 28.6263 20.8797 28.8372C20.4451 30.7798 19.9711 31.2171 19.8394 31.2171C19.6976 31.2171 19.1925 30.7352 18.7463 28.5937C18.7197 28.4656 18.6939 28.3344 18.6689 28.2006C19.0549 28.2279 19.4454 28.2421 19.8394 28.2421C20.0555 28.2421 20.2308 28.0669 20.2308 27.8507C20.2308 27.6345 20.0556 27.4592 19.8394 27.4592C19.3991 27.4592 18.9637 27.4408 18.5349 27.4053C18.381 26.39 18.2699 25.2509 18.2062 24.0394C18.7414 24.0574 19.287 24.0667 19.8394 24.0667C20.3914 24.0667 20.9367 24.0574 21.4715 24.0394C21.4261 24.8985 21.3571 25.727 21.2654 26.4983C21.2399 26.713 21.3933 26.9077 21.608 26.9332C21.8223 26.959 22.0173 26.8053 22.0429 26.5907C22.1392 25.7804 22.2109 24.9092 22.2572 24.0063C23.6064 23.9375 24.8719 23.8111 25.9859 23.6331C25.8745 24.4181 25.6982 25.1788 25.4572 25.9084C25.3894 26.1137 25.5008 26.3351 25.7061 26.4029C25.9112 26.4708 26.1327 26.3593 26.2006 26.154C26.4822 25.3016 26.6802 24.4103 26.7946 23.4895C26.8655 23.4755 26.9357 23.4614 27.005 23.447C27.9926 23.2413 28.75 23.0041 29.2843 22.7326C28.917 23.8571 28.01 24.895 26.6412 25.7316C26.4566 25.8444 26.3986 26.0853 26.5113 26.2698C26.6241 26.4543 26.865 26.5124 27.0495 26.3996C27.7777 25.9544 28.39 25.4536 28.8783 24.9111C28.657 25.5135 28.3758 26.0947 28.0355 26.645C27.9218 26.8288 27.9787 27.0701 28.1626 27.1837C28.3464 27.2974 28.5877 27.2405 28.7014 27.0566C29.7156 25.4166 30.2517 23.5254 30.2517 21.5876C30.2516 16.552 26.6582 12.34 21.9009 11.3807ZM22.7881 27.755L23.9858 27.346C24.1115 27.3031 24.2069 27.1994 24.2391 27.0706L24.4996 26.0287L24.7601 27.0706C24.7922 27.1994 24.8876 27.3031 25.0133 27.346L26.211 27.755L25.0133 28.164C24.8876 28.2069 24.7922 28.3107 24.7601 28.4395L24.4996 29.4814L24.2391 28.4395C24.2068 28.3106 24.1115 28.2069 23.9858 28.164L22.7881 27.755ZM18.5606 9.87056H21.118V11.254C20.6989 11.2024 20.2722 11.1753 19.8393 11.1753C19.4064 11.1753 18.9797 11.2024 18.5606 11.254V9.87056ZM19.8393 14.9332C19.4454 14.9332 19.0548 14.9475 18.6688 14.9748C18.6938 14.841 18.7196 14.7097 18.7463 14.5817C19.1924 12.4402 19.6976 11.9583 19.8393 11.9583C19.9811 11.9583 20.4862 12.4402 20.9323 14.5817C20.959 14.7098 20.9848 14.841 21.0098 14.9748C20.6237 14.9475 20.2333 14.9332 19.8393 14.9332ZM21.1438 15.77C21.2977 16.7853 21.4087 17.9244 21.4725 19.1359C20.9373 19.1179 20.3917 19.1085 19.8393 19.1085C19.287 19.1085 18.7414 19.1179 18.2062 19.1359C18.2699 17.9244 18.381 16.7853 18.5348 15.77C18.9636 15.7345 19.3991 15.7161 19.8393 15.7161C20.2795 15.7161 20.715 15.7346 21.1438 15.77ZM18.7087 12.1145C18.4312 12.6502 18.1892 13.417 17.9799 14.422C17.9375 14.6251 17.8974 14.8356 17.8592 15.0522C16.8003 15.181 15.786 15.4129 14.8463 15.7399C15.7783 13.8787 17.1432 12.5514 18.7087 12.1145ZM17.3875 23.2208C16.0062 23.1482 14.7187 23.0141 13.6019 22.8251C13.5678 22.4199 13.5501 22.0069 13.5501 21.5877C13.5501 21.1686 13.5678 20.7556 13.6019 20.3504C14.7187 20.1615 16.0062 20.0272 17.3875 19.9546C17.3695 20.4898 17.3602 21.0354 17.3602 21.5878C17.3602 22.14 17.3695 22.6856 17.3875 23.2208ZM17.4207 24.0063C17.4811 25.1897 17.5857 26.3087 17.7306 27.3176C16.5395 27.1548 15.4142 26.8542 14.4044 26.4285C14.0777 25.5716 13.8349 24.6311 13.6934 23.6333C14.807 23.8112 16.0721 23.9375 17.4207 24.0063ZM17.4207 19.1691C16.072 19.2378 14.807 19.3641 13.6935 19.542C13.835 18.5442 14.0777 17.6037 14.4045 16.7468C15.4143 16.3211 16.5395 16.0205 17.7307 15.8577C17.5857 16.8667 17.4811 17.9856 17.4207 19.1691ZM16.1438 12.6961C15.6557 13.1365 15.201 13.6678 14.7897 14.2847C14.4072 14.8585 14.0755 15.4875 13.7971 16.1589C13.3571 16.359 12.9386 16.5817 12.546 16.8271C11.8552 17.2589 11.2709 17.7418 10.8016 18.2634C11.7295 15.7485 13.6789 13.7244 16.1438 12.6961ZM12.9609 17.491C13.1068 17.3998 13.257 17.3123 13.4104 17.2277C13.1668 18.0084 12.9901 18.833 12.8843 19.6857C12.8133 19.6997 12.7429 19.7138 12.6736 19.7282C11.6866 19.9338 10.9295 20.1708 10.3953 20.4422C10.7562 19.3399 11.6362 18.3189 12.9609 17.491ZM10.2099 21.5877C10.2099 21.4466 10.6881 20.9453 12.8053 20.5006C12.7803 20.8595 12.7673 21.2221 12.7673 21.5877C12.7673 21.9533 12.7803 22.3159 12.8053 22.6748C10.6881 22.2301 10.2099 21.7288 10.2099 21.5877ZM12.6736 23.4471C12.7429 23.4616 12.8133 23.4757 12.8843 23.4896C12.9901 24.3423 13.1668 25.1669 13.4104 25.9477C13.257 25.863 13.1068 25.7755 12.9609 25.6844C11.6362 24.8564 10.7562 23.8354 10.3952 22.7331C10.9295 23.0045 11.6866 23.2415 12.6736 23.4471ZM10.8015 24.912C11.2709 25.4335 11.8551 25.9165 12.546 26.3483C12.9385 26.5937 13.3571 26.8164 13.7971 27.0165C14.0754 27.6878 14.4071 28.3169 14.7897 28.8907C15.201 29.5076 15.6556 30.0389 16.1437 30.4793C13.6789 29.451 11.7295 27.4268 10.8015 24.912ZM18.7087 31.0609C17.1432 30.624 15.7783 29.2966 14.8463 27.4354C15.786 27.7625 16.8003 27.9944 17.8592 28.1231C17.8974 28.3397 17.9376 28.5502 17.9799 28.7533C18.1893 29.7584 18.4312 30.5252 18.7087 31.0609ZM21.5061 23.2551C20.9608 23.2741 20.4038 23.2839 19.8393 23.2839C19.2747 23.2839 18.7174 23.2741 18.1719 23.2551C18.1529 22.7096 18.1431 22.1524 18.1431 21.5877C18.1431 21.023 18.1529 20.4658 18.1719 19.9203C18.7174 19.9013 19.2747 19.8915 19.8393 19.8915C20.404 19.8915 20.9612 19.9013 21.5067 19.9203C21.5257 20.4658 21.5355 21.023 21.5355 21.5877C21.5355 22.1485 21.5255 22.7062 21.5061 23.2551ZM21.8194 15.0522C21.7812 14.8356 21.7411 14.6251 21.6987 14.422C21.4894 13.4169 21.2475 12.6502 20.9699 12.1145C22.5354 12.5514 23.9003 13.8787 24.8323 15.7399C23.8926 15.4129 22.8782 15.181 21.8194 15.0522ZM21.9479 15.8578C23.1391 16.0205 24.2644 16.3211 25.2741 16.7469C25.6009 17.6037 25.8436 18.5443 25.9852 19.5421C24.8716 19.3642 23.6065 19.2378 22.2579 19.1691C22.1976 17.9856 22.0929 16.8667 21.9479 15.8578ZM26.0767 22.825C24.9599 23.014 23.6723 23.1481 22.2908 23.2208C22.3091 22.6827 22.3184 22.1365 22.3184 21.5876C22.3184 21.0353 22.3091 20.4897 22.291 19.9545C23.6724 20.0271 24.9599 20.1613 26.0767 20.3503C26.1107 20.7555 26.1284 21.1685 26.1284 21.5876C26.1285 22.0054 26.1107 22.418 26.0767 22.825ZM25.8814 16.1589C25.6031 15.4875 25.2714 14.8585 24.8888 14.2847C24.4775 13.6678 24.0229 13.1365 23.5348 12.6961C25.9997 13.7244 27.9491 15.7485 28.877 18.2634C28.4078 17.7419 27.8235 17.2589 27.1326 16.8271C26.74 16.5818 26.3215 16.359 25.8814 16.1589ZM26.7943 19.6856C26.6884 18.833 26.5117 18.0084 26.2682 17.2276C26.4216 17.3123 26.5718 17.3998 26.7176 17.4909C28.0423 18.3188 28.9224 19.3398 29.2833 20.4421C28.7491 20.1708 27.9919 19.9338 27.005 19.7282C26.9356 19.7137 26.8652 19.6996 26.7943 19.6856ZM26.8733 22.6747C26.8982 22.3161 26.9113 21.9537 26.9113 21.5877C26.9113 21.2221 26.8983 20.8595 26.8733 20.5006C28.9905 20.9453 29.4688 21.4466 29.4688 21.5877C29.4688 21.7288 28.9905 22.2301 26.8733 22.6747Z" fill="white"/>
</svg>
