<svg width="25" height="25" viewBox="0 0 25 25" fill="none" xmlns="http://www.w3.org/2000/svg">
<g clip-path="url(#clip0_201_13)">
<path d="M14.9009 4.38066V2.4791C14.9009 2.26289 14.7256 2.08765 14.5094 2.08765H13.2307V0.391455C13.2307 0.175244 13.0555 0 12.8393 0C12.623 0 12.4478 0.175195 12.4478 0.391455V2.0877H11.1691C10.9529 2.0877 10.7776 2.26289 10.7776 2.47915V4.38071C6.02046 5.34004 2.427 9.55195 2.427 14.5877C2.427 20.3291 7.0979 25 12.8393 25C14.3172 25 15.7666 24.6855 17.095 24.0909L17.1198 24.1902C17.1633 24.3645 17.3199 24.4867 17.4996 24.4867C17.6792 24.4867 17.8357 24.3645 17.8793 24.1902L18.0224 23.6181C18.5891 23.2929 19.1273 22.9137 19.6283 22.4826C19.7921 22.3416 19.8106 22.0944 19.6696 21.9305C19.5286 21.7667 19.2814 21.7481 19.1176 21.8892C18.8545 22.1156 18.5803 22.3264 18.2965 22.5216L18.4679 21.836L20.5488 21.1254C20.7073 21.0713 20.8138 20.9224 20.8138 20.755C20.8138 20.5875 20.7072 20.4386 20.5488 20.3845L18.4679 19.674L17.8793 17.3197C17.8358 17.1455 17.6792 17.0232 17.4996 17.0232C17.3199 17.0232 17.1634 17.1455 17.1198 17.3197L16.5312 19.674L14.4503 20.3845C14.2918 20.4386 14.1854 20.5875 14.1854 20.755C14.1854 20.9224 14.2919 21.0713 14.4503 21.1254L16.5312 21.836L16.9018 23.318C15.9623 23.755 14.9548 24.0395 13.9182 24.1564C14.1928 23.6618 14.4334 22.9478 14.6437 22.0081C14.6909 21.7971 14.5582 21.5878 14.3472 21.5406C14.1363 21.4937 13.9269 21.6263 13.8797 21.8372C13.4451 23.7798 12.9711 24.2171 12.8394 24.2171C12.6976 24.2171 12.1925 23.7352 11.7463 21.5937C11.7197 21.4656 11.6939 21.3344 11.6689 21.2006C12.0549 21.2279 12.4454 21.2421 12.8394 21.2421C13.0555 21.2421 13.2308 21.0669 13.2308 20.8507C13.2308 20.6345 13.0556 20.4592 12.8394 20.4592C12.3991 20.4592 11.9637 20.4408 11.5349 20.4053C11.381 19.39 11.2699 18.2509 11.2062 17.0394C11.7414 17.0574 12.287 17.0667 12.8394 17.0667C13.3914 17.0667 13.9367 17.0574 14.4715 17.0394C14.4261 17.8985 14.3571 18.727 14.2654 19.4983C14.2399 19.713 14.3933 19.9077 14.608 19.9332C14.8223 19.959 15.0173 19.8053 15.0429 19.5907C15.1392 18.7804 15.2109 17.9092 15.2572 17.0063C16.6064 16.9375 17.8719 16.8111 18.9859 16.6331C18.8745 17.4181 18.6982 18.1788 18.4572 18.9084C18.3894 19.1137 18.5008 19.3351 18.7061 19.4029C18.9112 19.4708 19.1327 19.3593 19.2006 19.154C19.4822 18.3016 19.6802 17.4103 19.7946 16.4895C19.8655 16.4755 19.9357 16.4614 20.005 16.447C20.9926 16.2413 21.75 16.0041 22.2843 15.7326C21.917 16.8571 21.01 17.895 19.6412 18.7316C19.4566 18.8444 19.3986 19.0853 19.5113 19.2698C19.6241 19.4543 19.865 19.5124 20.0495 19.3996C20.7777 18.9544 21.39 18.4536 21.8783 17.9111C21.657 18.5135 21.3758 19.0947 21.0355 19.645C20.9218 19.8288 20.9787 20.0701 21.1626 20.1837C21.3464 20.2974 21.5877 20.2405 21.7014 20.0566C22.7156 18.4166 23.2517 16.5254 23.2517 14.5876C23.2516 9.55195 19.6582 5.34004 14.9009 4.38066ZM15.7881 20.755L16.9858 20.346C17.1115 20.3031 17.2069 20.1994 17.2391 20.0706L17.4996 19.0287L17.7601 20.0706C17.7922 20.1994 17.8876 20.3031 18.0133 20.346L19.211 20.755L18.0133 21.164C17.8876 21.2069 17.7922 21.3107 17.7601 21.4395L17.4996 22.4814L17.2391 21.4395C17.2068 21.3106 17.1115 21.2069 16.9858 21.164L15.7881 20.755ZM11.5606 2.87056H14.118V4.25396C13.6989 4.20239 13.2722 4.17534 12.8393 4.17534C12.4064 4.17534 11.9797 4.20239 11.5606 4.25396V2.87056ZM12.8393 7.9332C12.4454 7.9332 12.0548 7.94746 11.6688 7.97476C11.6938 7.84097 11.7196 7.70972 11.7463 7.58169C12.1924 5.44019 12.6976 4.95825 12.8393 4.95825C12.9811 4.95825 13.4862 5.44019 13.9323 7.58169C13.959 7.70977 13.9848 7.84102 14.0098 7.97476C13.6237 7.94746 13.2333 7.9332 12.8393 7.9332ZM14.1438 8.76997C14.2977 9.78525 14.4087 10.9244 14.4725 12.1359C13.9373 12.1179 13.3917 12.1085 12.8393 12.1085C12.287 12.1085 11.7414 12.1179 11.2062 12.1359C11.2699 10.9244 11.381 9.78525 11.5348 8.76997C11.9636 8.73452 12.3991 8.71606 12.8393 8.71606C13.2795 8.71606 13.715 8.73457 14.1438 8.76997ZM11.7087 5.11445C11.4312 5.6502 11.1892 6.41699 10.9799 7.42202C10.9375 7.6251 10.8974 7.8356 10.8592 8.0522C9.80034 8.18096 8.78599 8.41289 7.84634 8.73989C8.77832 6.87871 10.1432 5.55137 11.7087 5.11445ZM10.3875 16.2208C9.0062 16.1482 7.71865 16.0141 6.6019 15.8251C6.56782 15.4199 6.55015 15.0069 6.55015 14.5877C6.55015 14.1686 6.56782 13.7556 6.6019 13.3504C7.71865 13.1615 9.00615 13.0272 10.3875 12.9546C10.3695 13.4898 10.3602 14.0354 10.3602 14.5878C10.3602 15.14 10.3695 15.6856 10.3875 16.2208ZM10.4207 17.0063C10.4811 18.1897 10.5857 19.3087 10.7306 20.3176C9.53945 20.1548 8.41416 19.8542 7.40444 19.4285C7.07769 18.5716 6.83491 17.6311 6.69341 16.6333C7.80698 16.8112 9.07207 16.9375 10.4207 17.0063ZM10.4207 12.1691C9.07202 12.2378 7.80698 12.3641 6.69346 12.542C6.83501 11.5442 7.07769 10.6037 7.40454 9.74683C8.41426 9.32109 9.5395 9.02046 10.7307 8.85772C10.5857 9.86665 10.4811 10.9856 10.4207 12.1691ZM9.14375 5.69609C8.65566 6.13652 8.20103 6.66782 7.78975 7.28472C7.40718 7.8585 7.07549 8.48755 6.79712 9.15894C6.35713 9.35898 5.93857 9.58174 5.54605 9.8271C4.85518 10.2589 4.27095 10.7418 3.80156 11.2634C4.72949 8.74854 6.67886 6.72437 9.14375 5.69609ZM5.96094 10.491C6.10684 10.3998 6.25698 10.3123 6.41035 10.2277C6.16685 11.0084 5.99009 11.833 5.88428 12.6857C5.81333 12.6997 5.74292 12.7138 5.67363 12.7282C4.68657 12.9338 3.92954 13.1708 3.39526 13.4422C3.7562 12.3399 4.63623 11.3189 5.96094 10.491ZM3.20986 14.5877C3.20986 14.4466 3.68813 13.9453 5.80532 13.5006C5.78032 13.8595 5.76728 14.2221 5.76728 14.5877C5.76728 14.9533 5.78032 15.3159 5.80532 15.6748C3.68813 15.2301 3.20986 14.7288 3.20986 14.5877ZM5.67363 16.4471C5.74292 16.4616 5.81333 16.4757 5.88428 16.4896C5.99014 17.3423 6.16685 18.1669 6.41035 18.9477C6.25698 18.863 6.10679 18.7755 5.96094 18.6844C4.63623 17.8564 3.7562 16.8354 3.39521 15.7331C3.92954 16.0045 4.68662 16.2415 5.67363 16.4471ZM3.80151 17.912C4.2709 18.4335 4.85513 18.9165 5.546 19.3483C5.93853 19.5937 6.35708 19.8164 6.79707 20.0165C7.07544 20.6878 7.40713 21.3169 7.7897 21.8907C8.20098 22.5076 8.65562 23.0389 9.1437 23.4793C6.67886 22.451 4.72949 20.4268 3.80151 17.912ZM11.7087 24.0609C10.1432 23.624 8.77832 22.2966 7.84634 20.4354C8.78599 20.7625 9.80034 20.9944 10.8592 21.1231C10.8974 21.3397 10.9376 21.5502 10.9799 21.7533C11.1893 22.7584 11.4312 23.5252 11.7087 24.0609ZM14.5061 16.2551C13.9608 16.2741 13.4038 16.2839 12.8393 16.2839C12.2747 16.2839 11.7174 16.2741 11.1719 16.2551C11.1529 15.7096 11.1431 15.1524 11.1431 14.5877C11.1431 14.023 11.1529 13.4658 11.1719 12.9203C11.7174 12.9013 12.2747 12.8915 12.8393 12.8915C13.404 12.8915 13.9612 12.9013 14.5067 12.9203C14.5257 13.4658 14.5355 14.023 14.5355 14.5877C14.5355 15.1485 14.5255 15.7062 14.5061 16.2551ZM14.8194 8.0522C14.7812 7.8356 14.7411 7.6251 14.6987 7.42202C14.4894 6.41694 14.2475 5.6502 13.9699 5.11445C15.5354 5.55137 16.9003 6.87871 17.8323 8.73989C16.8926 8.41289 15.8782 8.18096 14.8194 8.0522ZM14.9479 8.85776C16.1391 9.02051 17.2644 9.32114 18.2741 9.74687C18.6009 10.6037 18.8436 11.5443 18.9852 12.5421C17.8716 12.3642 16.6065 12.2378 15.2579 12.1691C15.1976 10.9856 15.0929 9.86665 14.9479 8.85776ZM19.0767 15.825C17.9599 16.014 16.6723 16.1481 15.2908 16.2208C15.3091 15.6827 15.3184 15.1365 15.3184 14.5876C15.3184 14.0353 15.3091 13.4897 15.291 12.9545C16.6724 13.0271 17.9599 13.1613 19.0767 13.3503C19.1107 13.7555 19.1284 14.1685 19.1284 14.5876C19.1285 15.0054 19.1107 15.418 19.0767 15.825ZM18.8814 9.15894C18.6031 8.48755 18.2714 7.8585 17.8888 7.28472C17.4775 6.66782 17.0229 6.13652 16.5348 5.69609C18.9997 6.72437 20.9491 8.74849 21.877 11.2634C21.4078 10.7419 20.8235 10.2589 20.1326 9.8271C19.74 9.58179 19.3215 9.35898 18.8814 9.15894ZM19.7943 12.6856C19.6884 11.833 19.5117 11.0084 19.2682 10.2276C19.4216 10.3123 19.5718 10.3998 19.7176 10.4909C21.0423 11.3188 21.9224 12.3398 22.2833 13.4421C21.7491 13.1708 20.9919 12.9338 20.005 12.7282C19.9356 12.7137 19.8652 12.6996 19.7943 12.6856ZM19.8733 15.6747C19.8982 15.3161 19.9113 14.9537 19.9113 14.5877C19.9113 14.2221 19.8983 13.8595 19.8733 13.5006C21.9905 13.9453 22.4688 14.4466 22.4688 14.5877C22.4688 14.7288 21.9905 15.2301 19.8733 15.6747Z" fill="#4285F4"/>
<path d="M24.6568 3.36128L22.5759 2.65073L21.9873 0.296484C21.9437 0.122217 21.7871 0 21.6075 0C21.428 0 21.2714 0.122217 21.2278 0.296484L20.6392 2.65073L18.5583 3.36128C18.3998 3.41538 18.2933 3.56431 18.2933 3.73174C18.2933 3.89917 18.3999 4.0481 18.5583 4.1022L20.6392 4.81274L21.2278 7.16699C21.2713 7.34126 21.4279 7.46348 21.6075 7.46348C21.7872 7.46348 21.9437 7.34126 21.9873 7.16699L22.5759 4.81274L24.6568 4.1022C24.8153 4.0481 24.9218 3.89917 24.9218 3.73174C24.9218 3.56431 24.8152 3.41538 24.6568 3.36128ZM22.1213 4.14072C21.9956 4.18364 21.9002 4.2874 21.868 4.41621L21.6075 5.45811L21.347 4.41621C21.3149 4.28735 21.2195 4.18364 21.0938 4.14072L19.8961 3.73174L21.0938 3.32275C21.2195 3.27983 21.3149 3.17607 21.347 3.04727L21.6075 2.00537L21.868 3.04727C21.9003 3.17612 21.9956 3.27983 22.1213 3.32275L23.319 3.73174L22.1213 4.14072Z" fill="#4285F4"/>
<path d="M6.44172 5.0314L4.36077 4.3209L3.77219 1.96665C3.72859 1.79238 3.57205 1.67017 3.39246 1.67017C3.21287 1.67017 3.05627 1.79238 3.01272 1.96665L2.42415 4.3209L0.343188 5.0314C0.186548 5.08496 0.0782471 5.23628 0.0782471 5.40186C0.0782471 5.56743 0.186548 5.71875 0.343188 5.77231L2.42415 6.48286L3.01272 8.83711C3.05632 9.01138 3.21287 9.13359 3.39246 9.13359C3.57205 9.13359 3.72864 9.01138 3.77219 8.83711L4.36077 6.48286L6.44172 5.77231C6.60017 5.71821 6.70667 5.56929 6.70667 5.40186C6.70667 5.23442 6.60012 5.08555 6.44172 5.0314ZM3.90618 5.81084C3.78049 5.85376 3.68513 5.95752 3.65295 6.08633L3.39246 7.12822L3.13196 6.08633C3.09973 5.95747 3.00442 5.85376 2.87874 5.81084L1.68103 5.40186L2.87874 4.99287C3.00442 4.94995 3.09978 4.84619 3.13196 4.71738L3.39246 3.67549L3.65295 4.71738C3.68513 4.84624 3.78049 4.94995 3.90618 4.99287L5.10388 5.40186L3.90618 5.81084Z" fill="#4285F4"/>
</g>
<defs>
<clipPath id="clip0_201_13">
<rect width="25" height="25" fill="white"/>
</clipPath>
</defs>
</svg>
